# xmcd
#
# Track frame offsets: 
#        150
#        17381
#        44322
#        73347
#        96430
#        112963
#        155434
#        183831
#        215021
#        237060
#        264436
#        283633
#
# Disc length: 4392 seconds
#
# Revision: 0
# Processed by: cddbd v1.5.2PL0 Copyright (c) Steve Scherf et al.
# Submitted via: ExactAudioCopy v0.99pb3
#
DISCID=a211260c
DTITLE=Various Artist - North Mississippi Hill Country Picnic
DYEAR=2007
DGENRE=Blues
TTITLE0=Rising Star Fife and Drum Band - Shimme
TTITLE1=Duwayne Burnside and Mississippi Mafia - Outskirts Of Town
TTITLE2=Danny Lancaster - Telephone Is RInging
TTITLE3=T-Model Ford - Intrumental
TTITLE4=Blue Mountain - Prodigal Son
TTITLE5=John Wilkins - Prodigal Son
TTITLE6=Alvin Youngblood Hart - In My Time Of Dying
TTITLE7=Burnside Exploration - Alice Mae
TTITLE8=Jimbo Mathus - Going Up The Country
TTITLE9=Divid Kimbrough - All Night Long
TTITLE10=North Mississippi Allstars - Bang Bang
TTITLE11=Kenny Brown - Gotta Boogie
EXTD=
EXTT0=
EXTT1=
EXTT2=
EXTT3=
EXTT4=
EXTT5=
EXTT6=
EXTT7=
EXTT8=
EXTT9=
EXTT10=
EXTT11=
PLAYORDER=
